<?xml version="1.0" encoding="utf-8"?>
<!-- Generator: Adobe Illustrator 16.0.0, SVG Export Plug-In . SVG Version: 6.00 Build 0)  -->
<!DOCTYPE svg PUBLIC "-//W3C//DTD SVG 1.1//EN" "http://www.w3.org/Graphics/SVG/1.1/DTD/svg11.dtd">
<svg version="1.1" id="Layer_1" xmlns="http://www.w3.org/2000/svg" xmlns:xlink="http://www.w3.org/1999/xlink" x="0px" y="0px"
	 width="812.837px" height="579.059px" viewBox="0 0 812.837 579.059" enable-background="new 0 0 812.837 579.059"
	 xml:space="preserve">
<g>
	<path fill="#21344F" d="M166.768,314.363c-7.872-8.135-18.762-13.121-30.177-13.121c-22.041,0-39.885,19.156-39.885,40.936
		c0,21.778,17.975,40.935,40.148,40.935c11.152,0,22.042-5.248,29.914-13.119v13.644c-8.528,6.166-19.025,9.709-29.52,9.709
		c-27.946,0-51.563-22.697-51.563-50.774c0-28.34,23.223-51.563,51.563-51.563c11.021,0,20.73,3.149,29.52,9.709V314.363z"/>
	<path fill="#21344F" d="M283.543,342.309c0,28.472-23.354,51.037-51.563,51.037c-28.208,0-51.561-22.565-51.561-51.037
		c0-28.34,23.353-51.301,51.561-51.301C260.189,291.008,283.543,313.969,283.543,342.309 M191.439,342.178
		c0,22.304,18.106,40.935,40.541,40.935c22.436,0,40.542-18.631,40.542-40.935c0-22.436-17.843-40.935-40.542-40.935
		C209.283,301.243,191.439,319.742,191.439,342.178"/>
	<path fill="#21344F" d="M343.378,312.001c-3.936-6.822-8.659-10.759-17.056-10.759c-8.79,0-16.401,6.298-16.401,15.351
		c0,8.527,8.791,12.465,15.482,15.481l6.561,2.888c12.857,5.642,23.747,12.07,23.747,27.813c0,17.32-13.907,30.571-31.095,30.571
		c-15.875,0-27.683-10.234-30.832-25.585l10.758-3.018c1.443,10.104,9.185,18.368,19.812,18.368s20.336-8.135,20.336-19.286
		c0-11.546-9.053-15.483-18.237-19.681l-6.035-2.624c-11.546-5.248-21.518-11.152-21.518-25.322
		c0-15.351,12.99-25.191,27.684-25.191c11.021,0,20.337,5.642,25.584,15.351L343.378,312.001z"/>
	<polygon fill="#21344F" points="398.093,391.641 387.072,391.641 387.072,302.948 363.193,302.948 363.193,292.714 
		422.234,292.714 422.234,302.948 398.093,302.948 	"/>
	<path fill="#21344F" d="M437.87,363.563l-11.939,28.077H413.86l45.658-103.649l44.478,103.649h-12.202l-11.677-28.077H437.87z
		 M459.256,313.707l-16.925,39.623h33.457L459.256,313.707z"/>
	<path fill="#008100" d="M517.012,289.004h53.586v19.374h-29.292v18.682c3.998-3.279,8.021-4.92,12.071-4.92
		c5.535,0,10.878,2.667,16.029,7.996c5.151,5.331,7.727,13.223,7.727,23.68c0,11.583-3.383,21.065-10.149,28.445
		c-6.765,7.381-15.53,11.072-26.293,11.072c-7.073,0-14.966-1.896-23.679-5.689v-23.066c7.636,5.64,14.377,8.458,20.22,8.458
		c4.201,0,7.738-1.729,10.609-5.189c2.87-3.459,4.306-7.804,4.306-13.031c0-3.741-0.757-6.829-2.268-9.264
		c-1.513-2.435-3.448-3.652-5.805-3.652c-2.46,0-4.459,1.59-5.997,4.768h-21.065V289.004z"/>
	<path fill="#008100" d="M625.108,287.313c11.121,0,20.027,4.626,26.716,13.877c6.688,9.252,10.032,22.821,10.032,40.708
		c0,15.684-3.333,28.177-9.996,37.479c-6.661,9.303-15.4,13.955-26.216,13.955c-7.893,0-14.787-2.487-20.679-7.459
		c-5.895-4.971-10.061-11.583-12.495-19.835c-2.435-8.252-3.652-17.093-3.652-26.524c0-15.785,3.383-28.432,10.149-37.94
		C605.734,292.067,614.446,287.313,625.108,287.313 M625.491,306.226c-4.049,0-7.085,2.758-9.109,8.274
		c-2.026,5.517-3.038,13.79-3.038,24.821c0,11.648,0.999,20.385,2.999,26.209c1.999,5.823,4.997,8.734,8.995,8.734
		c3.947,0,6.893-2.821,8.842-8.466c1.947-5.644,2.921-14.11,2.921-25.399c0-11.391-0.962-19.935-2.884-25.63
		C632.296,309.074,629.387,306.226,625.491,306.226"/>
	<path fill="#008100" d="M696.375,331.827c2.717-3.434,5.535-5.997,8.457-7.688c2.922-1.69,5.919-2.537,8.994-2.537
		c7.178,0,13.264,3.371,18.26,10.109c4.997,6.741,7.495,14.775,7.495,24.104c0,10.559-3.111,19.45-9.34,26.677
		c-6.228,7.229-13.878,10.841-22.949,10.841c-9.637,0-18.028-4.394-25.179-13.186c-7.15-8.789-10.725-21.615-10.725-38.479
		c0-9.687,1.487-18.67,4.464-26.946c2.977-8.277,7.596-14.916,13.855-19.913c6.263-4.997,13.78-7.496,22.556-7.496
		c6.106,0,13.034,1.487,20.784,4.459v23.064c-6.831-4.921-12.714-7.381-17.644-7.381c-4.775,0-9.001,1.988-12.673,5.958
		C699.058,317.387,696.939,323.523,696.375,331.827 M696.375,353.738c0.615,6.202,1.896,10.93,3.845,14.186
		c1.946,3.255,4.15,4.881,6.61,4.881c2.309,0,4.254-1.485,5.845-4.459c1.587-2.973,2.383-6.714,2.383-11.226
		c0-4.253-0.731-7.688-2.192-10.302c-1.46-2.613-3.447-3.921-5.958-3.921c-1.795,0-3.562,0.897-5.304,2.691
		C699.859,347.384,698.117,350.101,696.375,353.738"/>
	<path fill="#21344F" d="M108.601,439.873c6.189,0,11.475,1.749,15.856,5.248c4.38,3.499,6.571,7.731,6.571,12.694v4.486
		c0,4.276-1.63,8.015-4.889,11.215c3.259,3.198,4.889,6.937,4.889,11.213l0.047,18.104l-17.989-0.16v-17.943
		c0-1.227-0.442-2.279-1.322-3.161c-0.884-0.882-1.937-1.324-3.163-1.324h-4.487v22.429H86.171v-62.8H108.601z M113.085,457.815
		c0-1.227-0.442-2.279-1.322-3.161c-0.884-0.882-1.937-1.324-3.163-1.324h-4.487v13.457h4.487c1.226,0,2.279-0.44,3.163-1.323
		c0.88-0.882,1.322-1.936,1.322-3.162V457.815z"/>
	<polygon fill="#21344F" points="189.772,439.873 189.772,453.33 171.828,453.33 171.828,466.787 187.643,466.594 185.285,480.244 
		171.828,480.244 171.828,489.216 189.772,489.216 189.772,502.673 153.886,502.673 153.886,439.873 	"/>
	<path fill="#21344F" d="M231.156,498.186l-0.583,4.487h-17.942l13.457-62.8h17.942l13.457,62.8h-17.942l-0.539-4.487H231.156z
		 M237.302,484.729l-2.243-17.941l-2.242,17.941H237.302z"/>
	<polygon fill="#21344F" points="280.347,502.673 280.347,439.873 298.289,439.873 298.289,489.216 311.746,489.216 
		311.746,502.673 	"/>
	<polygon fill="#21344F" points="411.651,439.873 411.651,453.33 393.708,453.33 393.708,466.787 410.164,466.594 407.165,480.244 
		393.708,480.244 393.708,489.216 411.651,489.216 411.651,502.673 375.766,502.673 375.766,439.873 	"/>
	<path fill="#21344F" d="M479.364,457.815l-17.942,4.486v-4.486c0-1.227-0.442-2.279-1.322-3.161
		c-0.884-0.882-1.937-1.324-3.163-1.324c-1.228,0-2.281,0.442-3.163,1.324c-0.882,0.882-1.324,1.935-1.324,3.161v2.244
		c0,1.226,0.442,2.28,1.324,3.16c0.882,0.885,1.935,1.324,3.163,1.324c6.189,0,11.475,1.749,15.857,5.248
		c4.379,3.5,6.57,7.731,6.57,12.694v2.243c0,4.965-2.191,9.195-6.57,12.694c-4.382,3.498-9.668,5.249-15.857,5.249
		c-6.191,0-11.477-1.751-15.857-5.249c-4.381-3.499-6.572-7.729-6.572-12.694l17.942-4.485v4.485c0,1.227,0.442,2.279,1.324,3.163
		c0.882,0.882,1.935,1.323,3.163,1.323c1.226,0,2.279-0.441,3.163-1.323c0.88-0.884,1.322-1.937,1.322-3.163v-2.243
		c0-1.226-0.442-2.278-1.322-3.162c-0.884-0.881-1.937-1.323-3.163-1.323c-6.191,0-11.477-1.749-15.857-5.248
		c-4.381-3.499-6.572-7.729-6.572-12.693v-2.244c0-4.963,2.191-9.195,6.572-12.694c4.38-3.499,9.666-5.248,15.857-5.248
		c6.189,0,11.475,1.749,15.857,5.248C477.173,448.62,479.364,452.853,479.364,457.815"/>
	<polygon fill="#21344F" points="529.139,453.33 529.139,502.673 511.197,502.673 511.197,453.33 502.225,453.33 502.225,439.873 
		538.11,439.873 538.11,453.33 	"/>
	<path fill="#21344F" d="M579.494,498.186l-0.583,4.487h-17.942l13.457-62.8h17.942l13.457,62.8h-17.942l-0.539-4.487H579.494z
		 M585.641,484.729l-2.243-17.941l-2.242,17.941H585.641z"/>
	<polygon fill="#21344F" points="655.598,453.33 655.598,502.673 637.655,502.673 637.655,453.33 628.684,453.33 628.684,439.873 
		664.569,439.873 664.569,453.33 	"/>
	<polygon fill="#21344F" points="723.313,439.873 723.313,453.33 705.37,453.33 705.37,466.787 721.589,466.667 718.826,480.244 
		705.37,480.244 705.37,489.216 723.313,489.216 723.313,502.673 687.428,502.673 687.428,439.873 	"/>
	<polygon fill="#008100" points="742.087,69.21 83.202,69.21 83.139,259.131 153,234.226 153,156.21 248,156.21 248,200.146 
		412.299,140.787 742.235,260.413 	"/>
</g>
</svg>
