<?xml version="1.0" encoding="utf-8"?>
<!-- Generator: Adobe Illustrator 16.0.0, SVG Export Plug-In . SVG Version: 6.00 Build 0)  -->
<!DOCTYPE svg PUBLIC "-//W3C//DTD SVG 1.1//EN" "http://www.w3.org/Graphics/SVG/1.1/DTD/svg11.dtd">
<svg version="1.1" id="Layer_1" xmlns="http://www.w3.org/2000/svg" xmlns:xlink="http://www.w3.org/1999/xlink" x="0px" y="0px"
	 width="114.933px" height="114.933px" viewBox="0 0 114.933 114.933" enable-background="new 0 0 114.933 114.933"
	 xml:space="preserve">
<g>
	<g>
		<path fill="#FFFFFF" d="M113.477,47.707c0,0-6.057,0.904-9.687,1.438c-7.251,2.798-8.865,8.217-16.854,8.374
			c-10.86,0.215-48.078,0.215-58.94,0c-7.987-0.157-9.604-5.576-16.854-8.374c-3.629-0.533-9.683-1.438-9.683-1.438
			c-0.184,0.694-2.722,3.794,1.813,4.841c2.622,0.603,1.414,11.805,1.414,13.305c0,13.951,9.362,23.386,23.311,23.386h28.841h1.259
			h28.841c13.951,0,23.312-9.435,23.312-23.386c0-1.5-1.208-12.702,1.414-13.305C116.198,51.501,113.656,48.401,113.477,47.707z
			 M74.705,65.65H40.229c-0.889,0-1.611-0.725-1.611-1.613s0.722-1.611,1.611-1.611h34.476c0.888,0,1.612,0.723,1.612,1.611
			S75.592,65.65,74.705,65.65z"/>
		<g>
			<path fill="#FFFFFF" d="M38.617,94.229c0,1.059-0.859,1.916-1.917,1.916h-6.988c-1.057,0-1.913-0.857-1.913-1.916l0,0
				c0-1.057,0.856-1.918,1.913-1.918h6.988C37.758,92.311,38.617,93.172,38.617,94.229L38.617,94.229z"/>
			<path fill="#FFFFFF" d="M90.832,94.229c0,1.059-0.86,1.916-1.916,1.916h-6.988c-1.056,0-1.912-0.857-1.912-1.916l0,0
				c0-1.057,0.856-1.918,1.912-1.918h6.988C89.972,92.311,90.832,93.172,90.832,94.229L90.832,94.229z"/>
		</g>
	</g>
	<g>
		<path fill="#FFFFFF" d="M95.053,10.815C94.637,5.341,90.094,1,84.515,1c-5.856,0-10.617,4.76-10.617,10.616h4.837
			c0-3.191,2.589-5.78,5.78-5.78c3.185,0,5.781,2.589,5.781,5.78v45.769h4.84V10.815H95.053z"/>
		<path fill="#FFFFFF" d="M86.126,21.424c0,5.419-4.394,0.683-9.81,0.683c-5.417,0-9.808,4.736-9.808-0.683
			c0-5.417,4.391-9.808,9.808-9.808C81.732,11.616,86.126,16.007,86.126,21.424z"/>
	</g>
	<g>
		<g>
			<g>
				<polygon fill="#FFFFFF" points="81.829,32.791 79.409,32.791 79.409,25.934 81.829,25.934 81.829,32.791 				"/>
			</g>
			<g>
				<polygon fill="#FFFFFF" points="81.829,42.969 79.409,42.969 79.409,36.116 81.829,36.116 81.829,42.969 				"/>
			</g>
			<g>
				<polygon fill="#FFFFFF" points="81.829,53.15 79.409,53.15 79.409,46.299 81.829,46.299 81.829,53.15 				"/>
			</g>
		</g>
		<g>
			<g>
				<polygon fill="#FFFFFF" points="75.428,33.331 73.091,32.709 74.868,26.087 77.205,26.709 75.428,33.331 				"/>
			</g>
			<g>
				<polygon fill="#FFFFFF" points="72.794,43.166 70.456,42.542 72.227,35.922 74.565,36.544 72.794,43.166 				"/>
			</g>
			<g>
				<polygon fill="#FFFFFF" points="70.157,53.001 67.826,52.375 69.594,45.755 71.934,46.382 70.157,53.001 				"/>
			</g>
		</g>
		<g>
			<g>
				<polygon fill="#FFFFFF" points="68.498,32.745 66.408,31.542 69.833,25.6 71.934,26.811 68.498,32.745 				"/>
			</g>
			<g>
				<polygon fill="#FFFFFF" points="63.411,41.567 61.317,40.357 64.735,34.421 66.835,35.625 63.411,41.567 				"/>
			</g>
			<g>
				<polygon fill="#FFFFFF" points="58.318,50.382 56.225,49.178 59.651,43.235 61.743,44.445 58.318,50.382 				"/>
			</g>
		</g>
	</g>
</g>
</svg>
