<?xml version="1.0" encoding="utf-8"?>
<!-- Generator: Adobe Illustrator 16.0.0, SVG Export Plug-In . SVG Version: 6.00 Build 0)  -->
<!DOCTYPE svg PUBLIC "-//W3C//DTD SVG 1.1//EN" "http://www.w3.org/Graphics/SVG/1.1/DTD/svg11.dtd">
<svg version="1.1" id="Layer_1" xmlns="http://www.w3.org/2000/svg" xmlns:xlink="http://www.w3.org/1999/xlink" x="0px" y="0px"
	 width="30px" height="30px" viewBox="0 0 30 30" enable-background="new 0 0 30 30" xml:space="preserve">
<path fill="#888888" d="M16.155,11.873l-6.742,6.742c-0.682-0.707-1.236-1.716-1.236-2.397L7.91,15.055
	c-1.71-0.011-3.515-0.209-3.515-0.209c-0.382,0.02-0.718-0.254-0.775-0.633l0.051-2.056c0.006-0.235,0.172-0.436,0.402-0.485
	l0.716-0.153c0.325,0,0.553-0.488,0.651-0.799c0.44-1.396,1.706-2.369,3.167-2.434l1.486-0.067c0.531-0.286,1.099-0.725,1.219-1.327
	c0.238-1.186,0.475,3.4,0.475,3.4s0.292,0.644,0.412,1.454L16.155,11.873z M25.972,11.183c-0.821,1.28-1.138,2.266-2.389,2.512
	c-0.361-0.972-2.143-1.686-3.128-1.686l-0.477-0.015l-9.719,9.719l0.066,0.814h-0.193c-0.48,0-0.87,0.388-0.87,0.869v0.228
	c0,0.481,0.39,0.871,0.87,0.871h1.25c0.005,0,0.01-0.003,0.015-0.003c0.006,0,0.011,0.003,0.018,0.003
	c0.552,0,0.998-0.373,0.998-0.83l0.182-4.036c1.489,0.029,4.272-0.023,7.754-0.59l0.185,3.488h-0.221
	c-0.481,0-0.871,0.388-0.871,0.869v0.228c0,0.481,0.39,0.871,0.871,0.871h1.248c0.007,0,0.011-0.003,0.015-0.003
	c0.007,0,0.013,0.003,0.018,0.003c0.552,0,0.998-0.373,0.998-0.83l0.477-6.3c0.201-0.413,0.347-1.045,0.505-2.326l0.011-0.125
	c1.408-0.324,2.456-1.741,2.789-3.597C26.434,10.974,26.135,10.926,25.972,11.183z M29.624,15c0,8.065-6.561,14.625-14.624,14.625
	C6.936,29.625,0.375,23.064,0.375,15C0.375,6.936,6.936,0.375,15,0.375C23.063,0.375,29.624,6.936,29.624,15z M5.149,23.709
	l4.7-4.699l7.111-7.111l6.749-6.75c-0.072-0.065-0.147-0.129-0.222-0.192c-0.074-0.063-0.151-0.126-0.227-0.188
	C21,2.94,18.126,1.843,15,1.843C7.745,1.843,1.843,7.745,1.843,15c0,3.127,1.098,6,2.926,8.26c0.062,0.077,0.125,0.152,0.188,0.227
	C5.02,23.562,5.084,23.636,5.149,23.709z M28.157,15c0-3.125-1.097-5.999-2.926-8.259c-0.062-0.076-0.124-0.152-0.188-0.227
	c-0.062-0.075-0.127-0.148-0.191-0.223l-5.679,5.678l-8.976,8.976l-3.907,3.907c0.074,0.063,0.148,0.128,0.223,0.191
	c0.075,0.063,0.151,0.127,0.227,0.188c2.261,1.829,5.134,2.927,8.26,2.927C22.255,28.157,28.157,22.256,28.157,15z"/>
</svg>
