<?xml version="1.0" encoding="utf-8"?>
<!-- Generator: Adobe Illustrator 16.0.0, SVG Export Plug-In . SVG Version: 6.00 Build 0)  -->
<!DOCTYPE svg PUBLIC "-//W3C//DTD SVG 1.1//EN" "http://www.w3.org/Graphics/SVG/1.1/DTD/svg11.dtd">
<svg version="1.1" id="Layer_1" xmlns="http://www.w3.org/2000/svg" xmlns:xlink="http://www.w3.org/1999/xlink" x="0px" y="0px"
	 width="30px" height="30px" viewBox="0 0 30 30" enable-background="new 0 0 30 30" xml:space="preserve">
<g>
	<path fill="#888888" d="M3.921,4.958c0-0.368,0.3-0.67,0.67-0.67c0.685,0,1.328,0.267,1.812,0.751l0.431,0.432
		C6.253,6.253,5.931,7.203,5.931,8.191v0.114l1.338,1.339l4.687-4.687l-1.34-1.339h-0.115c-0.986,0-1.938,0.323-2.72,0.904
		L7.35,4.093C6.612,3.356,5.633,2.95,4.591,2.95c-1.107,0-2.008,0.9-2.008,2.008v8.704v5.261c0,0.507,0.07,1.01,0.209,1.495
		c0.346,1.213,1.087,2.226,2.057,2.924L3.921,27.05h2.678l2.679-2.677h10.708l2.68,2.677h2.677l-0.926-3.708
		c0.971-0.698,1.711-1.711,2.057-2.924c0.138-0.485,0.209-0.988,0.209-1.495v-5.261H3.921V4.958z M23.2,23.999l0.428,1.711h-0.406
		l-1.379-1.376C22.314,24.281,22.769,24.168,23.2,23.999z M6.064,23.999c0.431,0.169,0.886,0.282,1.357,0.335L6.044,25.71H5.636
		L6.064,23.999z"/>
	<rect x="11.154" y="6.946" fill="#888888" width="0.994" height="0.993"/>
	<rect x="12.148" y="7.939" fill="#888888" width="0.994" height="0.994"/>
	<rect x="13.142" y="8.934" fill="#888888" width="0.994" height="0.994"/>
	<rect x="10.16" y="7.939" fill="#888888" width="0.994" height="0.994"/>
	<rect x="11.154" y="8.934" fill="#888888" width="0.994" height="0.994"/>
	<rect x="12.148" y="5.952" fill="#888888" width="0.994" height="0.994"/>
	<rect x="13.142" y="6.946" fill="#888888" width="0.994" height="0.993"/>
	<rect x="14.135" y="7.939" fill="#888888" width="0.994" height="0.994"/>
	<rect x="15.129" y="8.934" fill="#888888" width="0.994" height="0.994"/>
	<rect x="14.135" y="9.928" fill="#888888" width="0.994" height="0.994"/>
	<rect x="12.148" y="9.928" fill="#888888" width="0.994" height="0.994"/>
	<rect x="16.123" y="9.928" fill="#888888" width="0.994" height="0.994"/>
</g>
</svg>
