<?xml version="1.0" encoding="utf-8"?>
<!-- Generator: Adobe Illustrator 16.0.0, SVG Export Plug-In . SVG Version: 6.00 Build 0)  -->
<!DOCTYPE svg PUBLIC "-//W3C//DTD SVG 1.1//EN" "http://www.w3.org/Graphics/SVG/1.1/DTD/svg11.dtd">
<svg version="1.1" id="Layer_1" xmlns="http://www.w3.org/2000/svg" xmlns:xlink="http://www.w3.org/1999/xlink" x="0px" y="0px"
	 width="30px" height="30px" viewBox="0 0 30 30" enable-background="new 0 0 30 30" xml:space="preserve">
<g>
	<path fill="#888888" d="M10.327,8.359c-0.385,0.291-0.741,0.56-1.096,0.83c-1.066,0.807-2.134,1.611-3.195,2.425
		c-0.127,0.098-0.226,0.114-0.372,0.047c-0.406-0.188-0.84-0.23-1.285-0.243c-0.478-0.014-0.961-0.043-1.431-0.129
		c-0.241-0.044-0.469-0.146-0.658-0.302c-0.105-0.087-0.219-0.184-0.289-0.304c-0.094-0.163,0.011-0.238-0.013-0.389
		c-0.014-0.088-0.068-0.154-0.131-0.212c-0.071-0.066-0.181-0.098-0.246-0.167C1.531,9.832,1.478,9.688,1.417,9.588
		C1.289,9.378,1.301,9.193,1.492,9.05c0.234-0.175,0.471-0.355,0.731-0.484c1.022-0.504,2.053-0.991,3.083-1.475
		c0.174-0.083,0.265-0.167,0.299-0.383c0.073-0.446,0.176-0.896,0.335-1.317C6.116,4.929,6.438,4.884,6.79,5.235
		C6.966,5.41,7.11,5.619,7.28,5.826c0.043-0.09,0.078-0.171,0.121-0.248C7.499,5.4,7.585,5.213,7.705,5.05
		C8.008,4.637,8.298,4.642,8.59,5.062c0.318,0.459,0.454,0.991,0.554,1.527c0.073,0.393,0.183,0.733,0.508,1.005
		C9.904,7.803,10.093,8.088,10.327,8.359z"/>
	<path fill="#888888" d="M11.048,9.053c0.257,0.341,0.497,0.658,0.752,0.995c-1.466,1.11-2.916,2.209-4.389,3.325
		c-0.254-0.336-0.495-0.651-0.754-0.994C8.119,11.271,9.569,10.172,11.048,9.053z"/>
	<path fill="#888888" d="M16.523,5.207c0.162,0.214,0.313,0.413,0.479,0.628c-1.612,1.221-3.214,2.433-4.837,3.662
		C12,9.281,11.85,9.084,11.686,8.87C13.302,7.646,14.899,6.437,16.523,5.207z"/>
	<path fill="#888888" d="M28.648,24.062c-0.155-0.864-0.325-1.728-0.455-2.597c-0.102-0.68-0.308-1.302-0.714-1.868
		c-0.341-0.477-0.643-0.982-0.932-1.492c-0.113-0.197-0.191-0.438-0.205-0.664c-0.086-1.429-0.294-2.834-0.755-4.193
		c-0.051-0.148-0.039-0.255,0.05-0.382c0.38-0.55,0.749-1.107,1.124-1.659c0.148-0.219,0.111-0.462-0.099-0.626
		c-0.199-0.155-0.427-0.13-0.611,0.057c-0.37,0.379-0.769,0.733-1.113,1.134c-0.2,0.235-0.412,0.387-0.668,0.42
		c-0.621-0.295-1.175-0.301-1.175-0.301c-0.059-0.014-0.12-0.025-0.181-0.031c-1.232-0.117-2.464-0.235-3.697-0.337
		c-1.918-0.158-3.835-0.295-5.751-0.459c-0.34-0.029-0.708-0.014-0.991-0.286c-1.454,1.101-2.896,2.194-4.351,3.295
		c0.058,0.16,0.112,0.296,0.155,0.436c0.397,1.266,1.232,2.498,1.578,3.83c0.398,1.535-0.107,4.926-0.011,5.197
		c0.158,0.441,0.597,0.685,1.073,0.65c0.521-0.04,0.812-0.3,0.968-0.78c0.401-1.238,0.829-2.469,1.234-3.704
		c0.055-0.172,0.134-0.221,0.271-0.222c0.03,0,0.062,0.002,0.098,0.007c0.371,0.038,0.741,0.079,1.111,0.116
		c0.578,0.061,1.156,0.112,1.735,0.133c0.072,0.004,0.146,0.005,0.218,0.007c0.874,0.018,1.738-0.044,2.592-0.196
		c0.555-0.098,1.105-0.233,1.648-0.41c0.035-0.011,0.068-0.019,0.098-0.022c0.008,0,0.016-0.001,0.023-0.002
		c0.792-0.067,1.582-0.133,2.374-0.21c0.478-0.047,0.832,0.115,1.116,0.499c0.384,0.519,0.792,1.017,1.181,1.53
		c0.076,0.1,0.132,0.226,0.163,0.347c0.209,0.828,0.412,1.657,0.618,2.485c0.042,0.174,0.085,0.35,0.13,0.522
		c0.111,0.442,0.386,0.751,0.818,0.902C28.101,25.464,28.795,24.871,28.648,24.062z"/>
	<path fill="#888888" d="M25.543,14.368c-0.038-0.1-0.074-0.23-0.106-0.396c-0.014-0.072-0.03-0.144-0.047-0.211
		C25.452,13.961,25.503,14.164,25.543,14.368z"/>
</g>
</svg>
